<svg id="control_1_" data-name="control (1)" xmlns="http://www.w3.org/2000/svg" width="35" height="35" viewBox="0 0 35 35">
  <path id="Path_6377" data-name="Path 6377" d="M9.114,113.959H2.552A2.555,2.555,0,0,1,0,111.407V109.22a2.555,2.555,0,0,1,2.552-2.552H9.114a2.555,2.555,0,0,1,2.552,2.552v2.188A2.555,2.555,0,0,1,9.114,113.959Zm-6.562-5.1a.365.365,0,0,0-.364.364v2.188a.365.365,0,0,0,.364.365H9.114a.365.365,0,0,0,.365-.365V109.22a.365.365,0,0,0-.365-.364Zm0,0" transform="translate(0 -99.376)" fill="#7c7c7c"/>
  <path id="Path_6378" data-name="Path 6378" d="M70.426,203.936a1.094,1.094,0,0,1-1.094-1.094V182.426a1.094,1.094,0,0,1,2.188,0v20.417A1.094,1.094,0,0,1,70.426,203.936Zm0,0" transform="translate(-64.593 -168.936)" fill="#7c7c7c"/>
  <path id="Path_6379" data-name="Path 6379" d="M70.426,9.479a1.094,1.094,0,0,1-1.094-1.094V1.094a1.094,1.094,0,0,1,2.188,0V8.386A1.094,1.094,0,0,1,70.426,9.479Zm0,0" transform="translate(-64.593)" fill="#7c7c7c"/>
  <path id="Path_6380" data-name="Path 6380" d="M350.447,113.959h-6.562a2.555,2.555,0,0,1-2.552-2.552V109.22a2.555,2.555,0,0,1,2.552-2.552h6.563A2.555,2.555,0,0,1,353,109.22v2.188A2.555,2.555,0,0,1,350.447,113.959Zm-6.562-5.1a.365.365,0,0,0-.365.364v2.188a.365.365,0,0,0,.365.365h6.563a.365.365,0,0,0,.365-.365V109.22a.365.365,0,0,0-.365-.364Zm0,0" transform="translate(-317.999 -99.376)" fill="#7c7c7c"/>
  <path id="Path_6381" data-name="Path 6381" d="M411.762,203.936a1.094,1.094,0,0,1-1.094-1.094V182.426a1.094,1.094,0,0,1,2.188,0v20.417A1.094,1.094,0,0,1,411.762,203.936Zm0,0" transform="translate(-382.595 -168.936)" fill="#7c7c7c"/>
  <path id="Path_6382" data-name="Path 6382" d="M411.762,9.479a1.094,1.094,0,0,1-1.094-1.094V1.094a1.094,1.094,0,0,1,2.188,0V8.386A1.094,1.094,0,0,1,411.762,9.479Zm0,0" transform="translate(-382.595)" fill="#7c7c7c"/>
  <path id="Path_6383" data-name="Path 6383" d="M179.782,327.292H173.22a2.555,2.555,0,0,1-2.552-2.552v-2.187A2.555,2.555,0,0,1,173.22,320h6.563a2.555,2.555,0,0,1,2.552,2.552v2.188A2.555,2.555,0,0,1,179.782,327.292Zm-6.562-5.1a.365.365,0,0,0-.365.365v2.188a.365.365,0,0,0,.365.365h6.563a.365.365,0,0,0,.364-.365v-2.187a.365.365,0,0,0-.364-.365Zm0,0" transform="translate(-159.001 -298.125)" fill="#7c7c7c"/>
  <path id="Path_6384" data-name="Path 6384" d="M241.094,24.063A1.094,1.094,0,0,1,240,22.969V1.094a1.094,1.094,0,0,1,2.188,0V22.969A1.094,1.094,0,0,1,241.094,24.063Zm0,0" transform="translate(-223.594)" fill="#7c7c7c"/>
  <path id="Path_6385" data-name="Path 6385" d="M241.094,402.689A1.094,1.094,0,0,1,240,401.595v-5.833a1.094,1.094,0,0,1,2.188,0v5.833A1.094,1.094,0,0,1,241.094,402.689Zm0,0" transform="translate(-223.594 -367.689)" fill="#7c7c7c"/>
</svg>
