<svg xmlns="http://www.w3.org/2000/svg" width="36.314" height="34.858" viewBox="0 0 36.314 34.858">
  <g id="XMLID_806_" transform="translate(0 -10.262)">
    <g id="XMLID_386_" transform="translate(0 10.262)">
      <path id="XMLID_389_" d="M36.244,29.369A14.316,14.316,0,0,0,25.112,16.816v-1.8a2.411,2.411,0,0,0-.582-4.752H19.423a2.411,2.411,0,0,0-.582,4.752v1.807a14.242,14.242,0,0,0-6.985,3.842,14.4,14.4,0,0,0-1.2,1.367l-.054,0H5.544a.709.709,0,1,0,0,1.419H9.687a14.219,14.219,0,0,0-1.259,2.726H.709a.709.709,0,0,0,0,1.419H8.028a14.421,14.421,0,0,0-.352,2.726H4.539a.709.709,0,1,0,0,1.419H7.7a14.4,14.4,0,0,0,.443,2.726H3.546a.709.709,0,1,0,0,1.419H8.594a14.325,14.325,0,0,0,11.977,9.172q.7.069,1.406.069A14.362,14.362,0,0,0,29.8,42.809a.709.709,0,0,0-.774-1.189,12.909,12.909,0,1,1,3.8-3.807.709.709,0,1,0,1.19.773A14.373,14.373,0,0,0,36.244,29.369ZM18.43,12.674a.994.994,0,0,1,.993-.993H24.53a.993.993,0,1,1,0,1.986H19.423A.994.994,0,0,1,18.43,12.674Zm1.829,3.9V15.085h3.434v1.489A14.452,14.452,0,0,0,20.26,16.577Z" transform="translate(0 -10.262)" fill="#7c7c7c"/>
      <path id="XMLID_391_" d="M436.479,425.5a.71.71,0,1,0,.5.208A.713.713,0,0,0,436.479,425.5Z" transform="translate(-404.862 -396.049)" fill="#7c7c7c"/>
      <path id="XMLID_394_" d="M165.875,144.609a11,11,0,1,0,11,11A11.015,11.015,0,0,0,165.875,144.609Zm0,20.587a9.584,9.584,0,1,1,9.584-9.584A9.6,9.6,0,0,1,165.875,165.2Z" transform="translate(-143.887 -135.08)" fill="#7c7c7c"/>
      <path id="XMLID_397_" d="M265.279,219.619l-3.513,3.513a2.2,2.2,0,0,0-1.947,0l-1.572-1.572a.709.709,0,0,0-1,1l1.572,1.572a2.2,2.2,0,1,0,3.953,0l3.41-3.41h0l.1-.1a.709.709,0,0,0-1-1Zm-4.487,6.275a.785.785,0,1,1,.785-.785A.786.786,0,0,1,260.793,225.894Z" transform="translate(-238.805 -204.577)" fill="#7c7c7c"/>
      <path id="XMLID_398_" d="M399.021,289.86h-.657a.709.709,0,0,0,0,1.419h.657a.709.709,0,1,0,0-1.419Z" transform="translate(-369.451 -270.029)" fill="#7c7c7c"/>
      <path id="XMLID_399_" d="M194.448,289.616h-.657a.709.709,0,0,0,0,1.419h.657a.709.709,0,0,0,0-1.419Z" transform="translate(-179.387 -269.802)" fill="#7c7c7c"/>
      <path id="XMLID_400_" d="M300.832,184.895a.709.709,0,0,0,.709-.709v-.657a.709.709,0,1,0-1.419,0v.657A.709.709,0,0,0,300.832,184.895Z" transform="translate(-278.836 -170.58)" fill="#7c7c7c"/>
      <path id="XMLID_424_" d="M300.588,387.393a.709.709,0,0,0-.709.709v.657a.709.709,0,1,0,1.419,0V388.1A.709.709,0,0,0,300.588,387.393Z" transform="translate(-278.61 -360.644)" fill="#7c7c7c"/>
      <path id="XMLID_425_" d="M.709,351.44a.709.709,0,1,0,.5,1.211.709.709,0,0,0-.5-1.211Z" transform="translate(0 -327.241)" fill="#7c7c7c"/>
    </g>
  </g>
</svg>
