<svg xmlns="http://www.w3.org/2000/svg" width="34.146" height="35" viewBox="0 0 34.146 35">
  <path id="filter" d="M33.17,0H1.966A1.466,1.466,0,0,0,.66.8,1.486,1.486,0,0,0,.775,2.343l11.432,16.1.012.016A3.266,3.266,0,0,1,12.86,20.4v13.13A1.46,1.46,0,0,0,14.32,35a1.5,1.5,0,0,0,.576-.115l6.424-2.45a1.391,1.391,0,0,0,.958-1.373V20.4a3.267,3.267,0,0,1,.641-1.938l.012-.016,11.432-16.1A1.485,1.485,0,0,0,34.477.8,1.466,1.466,0,0,0,33.17,0ZM21.486,17.411A5.058,5.058,0,0,0,20.5,20.4V30.847l-5.863,2.235V20.4a5.055,5.055,0,0,0-.986-2.991L2.552,1.777H32.585Zm0,0" transform="translate(-0.495)" fill="#7c7c7c"/>
</svg>
