<svg id="font" xmlns="http://www.w3.org/2000/svg" width="29.771" height="29.771" viewBox="0 0 29.771 29.771">
  <path id="Path_6442" data-name="Path 6442" d="M17.8,116.285H17L10.2,94.321a.872.872,0,0,0-.833-.614h0a.873.873,0,0,0-.833.617L1.811,116.285H.872a.872.872,0,1,0,0,1.744H4.617a.872.872,0,1,0,0-1.744H3.636l1.077-3.517H10.4l1.08,3.517h-.956a.872.872,0,1,0,0,1.744H17.8a.872.872,0,1,0,0-1.744ZM5.247,111.023,7.552,103.5l2.311,7.528Zm0,0" transform="translate(0 -88.258)" fill="#1a6cff"/>
  <path id="Path_6443" data-name="Path 6443" d="M343.577,296.334h-1.286v-7.97a3.494,3.494,0,0,0-3.488-3.492h-.556a3.494,3.494,0,0,0-3.488,3.492v.229a.872.872,0,0,0,1.744,0v-.229a1.748,1.748,0,0,1,1.744-1.748h.556a1.748,1.748,0,0,1,1.744,1.748v.682l-4.2,1.643a3.512,3.512,0,0,0-2.244,3.29v.357a3.528,3.528,0,0,0,6.024,2.5l.417-.418v.135a1.528,1.528,0,0,0,1.526,1.527h1.5a.872.872,0,1,0,0-1.744ZM338.9,295.6a1.784,1.784,0,0,1-3.045-1.265v-.357a1.777,1.777,0,0,1,1.135-1.666l3.562-1.394v3.028Zm0,0" transform="translate(-314.678 -268.307)" fill="#1a6cff"/>
  <path id="Path_6444" data-name="Path 6444" d="M28.9,0a.872.872,0,0,0-.872.872v.584H1.744V.872A.872.872,0,1,0,0,.872V3.784a.872.872,0,0,0,1.744,0V3.2H28.027v.584a.872.872,0,0,0,1.744,0V.872A.872.872,0,0,0,28.9,0Zm0,0" fill="#1a6cff"/>
</svg>
