<svg xmlns="http://www.w3.org/2000/svg" width="29.77" height="29.771" viewBox="0 0 29.77 29.771">
  <g id="free" transform="translate(-0.01 0)">
    <path id="Path_6455" data-name="Path 6455" d="M28.413,14.886l1.306-3.407a.931.931,0,0,0-.283-1.057L26.6,8.127l-.573-3.6a.93.93,0,0,0-.774-.772l-3.6-.573L19.359.344A.932.932,0,0,0,18.3.061L14.9,1.369,11.489.063a.928.928,0,0,0-1.055.283l-2.3,2.834-3.6.573a.932.932,0,0,0-.772.772l-.573,3.6-2.834,2.3A.931.931,0,0,0,.072,11.48l1.306,3.407L.072,18.293a.928.928,0,0,0,.283,1.055l2.834,2.294.573,3.6a.93.93,0,0,0,.772.774l3.6.573,2.3,2.832a.926.926,0,0,0,1.057.283l3.4-1.3L18.3,29.71a.931.931,0,0,0,1.057-.285l2.294-2.832,3.6-.573a.932.932,0,0,0,.774-.774l.573-3.6,2.832-2.294a.929.929,0,0,0,.283-1.055Z" transform="translate(0 0)" fill="#1a6cff"/>
    <g id="Group_7762" data-name="Group 7762" transform="translate(3.732 10.235)">
      <path id="Path_6456" data-name="Path 6456" d="M66.813,177.9a.93.93,0,1,0,0-1.861H64.952a.931.931,0,0,0-.93.93v7.442a.93.93,0,0,0,1.861,0v-2.791h.93a.93.93,0,0,0,0-1.861h-.93V177.9Z" transform="translate(-64.022 -176.035)" fill="#fafafa"/>
      <path id="Path_6457" data-name="Path 6457" d="M290.813,177.9a.93.93,0,0,0,0-1.861h-1.861a.931.931,0,0,0-.93.93v7.442a.931.931,0,0,0,.93.93h1.861a.93.93,0,0,0,0-1.861h-.93v-1.861h.93a.93.93,0,0,0,0-1.861h-.93V177.9Z" transform="translate(-274.998 -176.035)" fill="#fafafa"/>
      <path id="Path_6458" data-name="Path 6458" d="M386.813,181.617a.93.93,0,1,0,0-1.861h-.93V177.9h.93a.93.93,0,1,0,0-1.861h-1.861a.931.931,0,0,0-.93.93v7.442a.931.931,0,0,0,.93.93h1.861a.93.93,0,1,0,0-1.861h-.93v-1.861Z" transform="translate(-365.416 -176.035)" fill="#fafafa"/>
      <path id="Path_6459" data-name="Path 6459" d="M165.6,178.826a2.794,2.794,0,0,0-2.791-2.791h-1.861a.931.931,0,0,0-.93.93v7.442a.93.93,0,0,0,1.861,0v-2.171l2.047,2.729a.93.93,0,1,0,1.487-1.116l-1.777-2.372A2.784,2.784,0,0,0,165.6,178.826Zm-2.791.93h-.93V177.9h.93a.93.93,0,0,1,0,1.861Z" transform="translate(-154.44 -176.035)" fill="#fafafa"/>
    </g>
  </g>
</svg>
