<svg id="image" xmlns="http://www.w3.org/2000/svg" width="28.902" height="24.788" viewBox="0 0 28.902 24.788">
  <path id="Path_6472" data-name="Path 6472" d="M.5,19.013,7.019,12.49a.891.891,0,0,1,1.26,0L13.091,17.3l7.533-7.533a.892.892,0,0,1,1.259,0l6.524,6.524h.5V1.055A1.057,1.057,0,0,0,27.846,0H1.055A1.057,1.057,0,0,0,0,1.055V19.013ZM13.09,5.409A2.887,2.887,0,1,1,10.2,8.3,2.891,2.891,0,0,1,13.09,5.409Zm0,0" fill="#1a6cff"/>
  <path id="Path_6473" data-name="Path 6473" d="M211.944,128.2a1.194,1.194,0,1,0-1.194-1.194A1.2,1.2,0,0,0,211.944,128.2Zm0,0" transform="translate(-198.853 -118.714)" fill="#1a6cff"/>
  <path id="Path_6474" data-name="Path 6474" d="M28.055,210.78a.845.845,0,0,1-.6-.248l-6.2-6.2-7.533,7.533a.891.891,0,0,1-1.26,0l-4.811-4.811-6.2,6.2a.844.844,0,0,1-.6.248H0v3.026a1.057,1.057,0,0,0,1.055,1.055H27.846a1.057,1.057,0,0,0,1.055-1.055V210.78Zm0,0" transform="translate(0 -192.794)" fill="#1a6cff"/>
</svg>
