<svg xmlns="http://www.w3.org/2000/svg" width="31.018" height="23.263" viewBox="0 0 31.018 23.263">
  <g id="mail" transform="translate(0 -64)">
    <g id="Group_7767" data-name="Group 7767" transform="translate(0 64)">
      <g id="Group_7766" data-name="Group 7766">
        <path id="Path_6470" data-name="Path 6470" d="M7.142,65.887c4.257,3.605,11.727,9.948,13.922,11.926a1.3,1.3,0,0,0,1.876,0c2.2-1.98,9.667-8.323,13.924-11.928A.646.646,0,0,0,36.956,65a2.566,2.566,0,0,0-2.028-1H9.08a2.566,2.566,0,0,0-2.028,1A.646.646,0,0,0,7.142,65.887Z" transform="translate(-6.495 -64)" fill="#1a6cff"/>
        <path id="Path_6471" data-name="Path 6471" d="M30.643,126.472a.643.643,0,0,0-.689.093c-4.721,4-10.746,9.132-12.642,10.84a2.617,2.617,0,0,1-3.607,0c-2.021-1.821-8.787-7.573-12.641-10.839A.646.646,0,0,0,0,127.058v16.251a2.587,2.587,0,0,0,2.585,2.585H28.433a2.587,2.587,0,0,0,2.585-2.585V127.058A.646.646,0,0,0,30.643,126.472Z" transform="translate(0 -122.631)" fill="#1a6cff"/>
      </g>
    </g>
  </g>
</svg>
