<svg xmlns="http://www.w3.org/2000/svg" width="30.22" height="30.209" viewBox="0 0 30.22 30.209">
  <g id="Page-1" transform="translate(0 -0.019)">
    <g id="_035---Creative-Thinking" data-name="035---Creative-Thinking" transform="translate(0 0.019)">
      <path id="Shape" d="M35.287,16.991l-2.711-.166c-.082.54-.145,1.055-.2,1.565l.2.026a11.343,11.343,0,0,0,2.7.131C35.3,18.015,35.3,17.495,35.287,16.991Z" transform="translate(-14.905 -7.756)" fill="#1a6cff"/>
      <path id="Shape-2" data-name="Shape" d="M32.284,21.736l-.156-.021a26.045,26.045,0,0,0-.068,2.724,7.227,7.227,0,0,1,2.392-.412c.134,0,.264.013.4.02.1-.75.182-1.475.232-2.169-.236.018-.471.036-.695.036A15.375,15.375,0,0,1,32.284,21.736Z" transform="translate(-14.755 -10.007)" fill="#1a6cff"/>
      <path id="Shape-3" data-name="Shape" d="M15.428.023A.167.167,0,0,0,15.3.18l-.088,2.432a1.835,1.835,0,0,0,.832.039,1.841,1.841,0,0,0,.729-.4L15.613.106A.168.168,0,0,0,15.428.023Z" transform="translate(-7.003 -0.019)" fill="#1a6cff"/>
      <path id="Shape-4" data-name="Shape" d="M18.217,16.575a.54.54,0,0,1,.648.4l1.542,6.577a7.239,7.239,0,0,1,.809-1.256L18.811,12a2.556,2.556,0,0,1-.941.717l.382,1.63a.54.54,0,1,1-1.051.246l-.382-1.629c-.035,0-.071.006-.1.006a2.557,2.557,0,0,1-1.057-.23l2.368,10.106a6.112,6.112,0,0,1,1.176.293l-1.387-5.917A.54.54,0,0,1,18.217,16.575Z" transform="translate(-7.209 -5.535)" fill="#1a6cff"/>
      <path id="Shape-5" data-name="Shape" d="M35.991,5.343a7.217,7.217,0,0,0-1.948-3.868A8.141,8.141,0,0,1,31.7,5.414a2.251,2.251,0,0,0,.04,3.25l3.163.194A4.835,4.835,0,0,0,35.991,5.343ZM34.078,8.072a.54.54,0,0,1-.432-.863,3,3,0,0,0,.537-2.25.54.54,0,1,1,1.043-.278,4.047,4.047,0,0,1-.718,3.177A.54.54,0,0,1,34.078,8.072Z" transform="translate(-14.281 -0.689)" fill="#1a6cff"/>
      <path id="Shape-6" data-name="Shape" d="M50.4,13.5l-2.262,1.412a10.66,10.66,0,0,1-.72,2.935,2.22,2.22,0,0,0,3.014,1.248,10.674,10.674,0,0,1,1.565-2.583l-.6-2.6-.8,1.934a.54.54,0,1,1-1-.413Z" transform="translate(-21.828 -6.225)" fill="#1a6cff"/>
      <path id="Shape-7" data-name="Shape" d="M46.823,29.362l1.722-4.155a2.86,2.86,0,0,1-.327.02,3.424,3.424,0,0,1-1.32-.278,3.287,3.287,0,0,1-1.345-.979L44.506,26.5A7.324,7.324,0,0,1,46.823,29.362Z" transform="translate(-20.489 -11.045)" fill="#1a6cff"/>
      <path id="Shape-8" data-name="Shape" d="M26.982,36.634a3.371,3.371,0,0,0-.72.079.54.54,0,0,1-.631-.686,6.206,6.206,0,0,0-11.742-4.005.54.54,0,0,1-.827.243,5.127,5.127,0,0,0-8.2,4,.54.54,0,0,1-.7.507,3.179,3.179,0,0,0-.923-.134,3.238,3.238,0,0,0,0,6.476H26.982a3.238,3.238,0,0,0,0-6.476ZM8.808,33.907a1.855,1.855,0,0,0-1.253,1.648.54.54,0,0,1-1.079,0,2.928,2.928,0,0,1,1.988-2.671.541.541,0,0,1,.344,1.025Zm6.858-2.261a3.361,3.361,0,0,1,3.222-2.567.54.54,0,0,1,0,1.079,2.3,2.3,0,0,0-2.177,1.75.54.54,0,0,1-.523.409.527.527,0,0,1-.132-.016A.54.54,0,0,1,15.666,31.646Zm5.6,7.276a.54.54,0,0,1-.715-.27,1.619,1.619,0,0,0-1.468-.939,1.591,1.591,0,0,0-1,.352.561.561,0,0,1-.057.029.486.486,0,0,1-.05.037l-.043.01a.491.491,0,0,1-.308.019.534.534,0,0,1-.1-.03.523.523,0,0,1-.086-.054.515.515,0,0,1-.084-.07c-.011-.011-.025-.017-.035-.029a.549.549,0,0,1-.029-.054.589.589,0,0,1-.038-.051,2.137,2.137,0,0,0-1.951-1.239,2.159,2.159,0,0,0-2.159,2.159,2.2,2.2,0,0,0,.178.868.54.54,0,0,1-.285.708.534.534,0,0,1-.212.043.54.54,0,0,1-.5-.328,3.277,3.277,0,0,1-.264-1.291A3.231,3.231,0,0,1,17.929,36.9a2.653,2.653,0,0,1,1.158-.27,2.7,2.7,0,0,1,2.45,1.573.54.54,0,0,1-.267.715Z" transform="translate(0 -12.9)" fill="#1a6cff"/>
      <path id="Shape-9" data-name="Shape" d="M16.814,9.045a1.79,1.79,0,0,0,1.3-1.447L17.2,5.921a2.749,2.749,0,0,1-1,.5,2.4,2.4,0,0,1-.548.061,3.176,3.176,0,0,1-.569-.054l-.069,1.9A1.792,1.792,0,0,0,16.814,9.045Z" transform="translate(-6.911 -2.736)" fill="#1a6cff"/>
      <path id="Shape-10" data-name="Shape" d="M2.96,21.823l2-.827-.413-1L.052,21.859l3.911,9.431a6.265,6.265,0,0,1,3.5-4.253l-.437-1.054-2,.827a.546.546,0,0,1-.206.041.54.54,0,0,1-.209-1.038l2-.827-.413-1-1,.414a.548.548,0,0,1-.206.041A.54.54,0,0,1,4.782,23.4l1-.414-.413-1-2,.827a.547.547,0,0,1-.207.041.54.54,0,0,1-.207-1.038Z" transform="translate(-0.024 -9.217)" fill="#1a6cff"/>
    </g>
  </g>
</svg>
