<svg xmlns="http://www.w3.org/2000/svg" width="35.76" height="35" viewBox="0 0 35.76 35">
  <g id="brush" transform="translate(0 -0.501)">
    <path id="Path_6374" data-name="Path 6374" d="M35.723,11.059a.913.913,0,0,0-.773-.651c-2.167-.249-7.649-.387-11.736,3.7a5.27,5.27,0,0,0-1.585,4.278,1.481,1.481,0,0,0-.393.237L17.03,22.171a.557.557,0,0,0-.052.05L.531,40.484A2.065,2.065,0,0,0,3.448,43.4L21.711,26.954a.554.554,0,0,0,.05-.051L25.309,22.7a1.487,1.487,0,0,0,.206-.321c.148.012.3.02.46.02a5.319,5.319,0,0,0,3.849-1.678,8.17,8.17,0,0,0,2.3-3.98c.416-1.379.808-2.681,3.295-4.713A.913.913,0,0,0,35.723,11.059ZM20.984,26.2,2.747,42.622a1.018,1.018,0,0,1-1.437-1.437L17.733,22.948l1.658-1.4,2.992,2.992Zm3.525-4.178L23.06,23.738l-2.866-2.866,1.717-1.448a.411.411,0,0,1,.56.024l2.013,2.013A.412.412,0,0,1,24.508,22.021Zm4.575-2.043a4.247,4.247,0,0,1-3.491,1.354,1.469,1.469,0,0,0-.368-.612l-2.013-2.013a1.467,1.467,0,0,0-.532-.34,4.207,4.207,0,0,1,1.275-3.518,11.28,11.28,0,0,1,2.165-1.693,3.84,3.84,0,0,0,.71,2.9A2.634,2.634,0,0,0,28.9,16.7a1.619,1.619,0,0,1,1.754,1.093A7.162,7.162,0,0,1,29.084,19.978Zm2.042-3.542-.028.092a2.72,2.72,0,0,0-2.232-.877,1.62,1.62,0,0,1-1.281-.324,3.462,3.462,0,0,1-.4-2.456c.007-.1.009-.192.008-.288a14.53,14.53,0,0,1,7.325-1.169A8.984,8.984,0,0,0,31.126,16.436Zm0,0" transform="translate(0 -9.118)" fill="#7c7c7c"/>
    <path id="Path_6375" data-name="Path 6375" d="M16.9,16.436a.524.524,0,0,0,.741-.741L10.8,8.852l1.136-1.136,6.745,6.745a.524.524,0,0,0,.741-.741L12.675,6.975,13.81,5.84l6.647,6.647a.524.524,0,0,0,.741-.741L10.882,1.43A3.178,3.178,0,0,0,6.388,5.924ZM10.057,8.111,8.765,6.819l3.012-3.012L13.069,5.1ZM7.129,2.171a2.132,2.132,0,0,1,3.012,0l.895.895L8.024,6.078l-.895-.895A2.132,2.132,0,0,1,7.129,2.171Zm0,0" transform="translate(-5.078 0)" fill="#7c7c7c"/>
    <path id="Path_6376" data-name="Path 6376" d="M274.757,267.951a.522.522,0,0,0-.1-.132l-8.874-8.874a.524.524,0,0,0-.741.741l8.2,8.2a4.772,4.772,0,0,0-1.469.8l-7.967-7.967a.524.524,0,0,0-.741.741l7.967,7.967a4.784,4.784,0,0,0-.8,1.469l-8.4-8.4a.524.524,0,0,0-.741.741l9.07,9.07a.531.531,0,0,0,.133.1l6.332,3.23a1.019,1.019,0,0,0,.463.113,1.012,1.012,0,0,0,.892-1.468Zm.444,3.176a4.782,4.782,0,0,0-1.726,1.726l-2.359-1.2a3.741,3.741,0,0,1,.977-1.831.521.521,0,0,0,.039-.035c.012-.013.024-.025.035-.039a3.739,3.739,0,0,1,1.83-.977Zm-.791,2.2a3.738,3.738,0,0,1,1.268-1.268l1.32,2.587Zm0,0" transform="translate(-242.718 -240.25)" fill="#7c7c7c"/>
  </g>
</svg>
