<svg xmlns="http://www.w3.org/2000/svg" xmlns:xlink="http://www.w3.org/1999/xlink" width="77.862" height="72.15" viewBox="0 0 77.862 72.15">
  <defs>
    <linearGradient id="linear-gradient" x1="-0.08" y1="0.503" x2="0.958" y2="0.503" gradientUnits="objectBoundingBox">
      <stop offset="0" stop-color="#fb6b14"/>
      <stop offset="1" stop-color="#fdb522"/>
    </linearGradient>
  </defs>
  <g id="Group_8581" data-name="Group 8581" transform="translate(-0.003)">
    <path id="Path_2451" data-name="Path 2451" d="M30.212,10.233a5.187,5.187,0,0,0-.448,5.531,10.608,10.608,0,0,0-3.457-.156c-2.123.2-3.388,5.17-3.388,5.17L25.411,26.8l-2.911-.73A58.464,58.464,0,0,0,36.726,61.615a10.964,10.964,0,0,0,.4-4.089C36.57,52.4,31.731,49.8,30.367,40.564c-3.223-21.8,9.854-16.416,9.7-25.209A40.874,40.874,0,0,1,43.035.01V0h0C38.137,3.943,32.286,7.556,30.212,10.233Z" transform="translate(-0.592)" fill="#1665ff"/>
    <g id="Group_3010" data-name="Group 3010" transform="translate(7.858 40.653)">
      <g id="Group_3009" data-name="Group 3009">
        <path id="Path_2452" data-name="Path 2452" d="M8.07,46.6a9.259,9.259,0,0,1,7.858,3.33C19.54,54.447,24.438,60.9,27.076,60.9c7.809,0-.944-15.014-3.213-17.448C19.043,38.264,8.07,46.6,8.07,46.6Z" transform="translate(-8.07 -41.752)" fill="#40a8ff"/>
      </g>
    </g>
    <path id="Path_2453" data-name="Path 2453" d="M51.88,15.161a10.884,10.884,0,0,1,1.646-5.384c-.3.1-10,3.252-10.584,4.421a36.032,36.032,0,0,0-1.353,5.589s-2.016-2.639-1.947-3.534-15.433,17.2-4.722,41.683c0,0,1.48-2.522,1.48-2.532-.8-1.538-4.6-12.668,5.18-23.242,3.028-3.281,9.493-5.277,14.9-9.873S63.554,17.342,71.2,4.129c.019-.019.019-.029.019-.029S64.888,8.209,59.63,8.852C54.382,9.514,51.88,15.161,51.88,15.161Z" transform="translate(-0.82 -0.108)" fill="#0a429f"/>
    <path id="Path_2454" data-name="Path 2454" d="M64.2,49.354C45.384,43.434,31.09,59.364,31.09,59.364l3.924,3.427c1.266-5.277,14.8-11.733,24.508-11.733,11.266,0,19.162,9.649,19.162,9.649C75.315,53.921,67.681,50.455,64.2,49.354Z" transform="translate(-0.818 -1.264)" fill="#0d5bd9"/>
    <path id="Path_2455" data-name="Path 2455" d="M36.922,14.664c-1.9,7.77-9.571,6.718-9.143,18.383.341,9.231,5.1,20.136,7.789,24.342-.555-5.122-3.681-7.575-5.053-16.816-3.223-21.8,9.854-16.416,9.7-25.209A40.77,40.77,0,0,1,43.173.01C42.92.39,38.558,7.984,36.922,14.664Z" transform="translate(-0.731 0)" fill="#0d5bd9"/>
    <path id="Path_2456" data-name="Path 2456" d="M61.569,55.2C45.406,50.116,32.69,63.231,32.69,63.231l2.317,2.707H36.4c2.9-4.771,14.644-9.25,22.823-8.442,8.9.876,8.968,4.878,8.841,5.871C68.989,58.928,64.714,56.192,61.569,55.2Z" transform="translate(-0.86 -1.422)" fill="#1665ff"/>
    <path id="Path_2457" data-name="Path 2457" d="M69.019,63.62c-.019.078-.019.146-.039.224A2.256,2.256,0,0,0,69.019,63.62Z" transform="translate(-1.815 -1.674)" fill="url(#linear-gradient)"/>
    <path id="Path_2458" data-name="Path 2458" d="M41.515,36.4c-2.726,3.223-17.429,26.163-7.556,25.705,3.34-.156,13.671-12.054,17.974-17.974a11.666,11.666,0,0,1,9.737-4.664S47.3,29.57,41.515,36.4Z" transform="translate(-0.805 -0.895)" fill="#0a429f"/>
    <path id="Path_2459" data-name="Path 2459" d="M21.98,56.39c2.415,2.9,1.626,8.237,0,9.61H33.061C33.129,60.022,21.98,56.39,21.98,56.39Z" transform="translate(-0.578 -1.484)" fill="#333242"/>
    <path id="Path_2460" data-name="Path 2460" d="M15.706,55.032c-1.636.156-6.358-1.431-10.808,1.4-5.4,3.447-6.29,9.951-2.872,17.078a.578.578,0,0,1,.039.078s10.048-2.532,14.8-11.752c4.459-8.656,14.888-.867,15.53,4.128h2.424C33.865,63.522,32.472,53.445,15.706,55.032Z" transform="translate(0 -1.44)" fill="#1665ff"/>
    <path id="Path_2461" data-name="Path 2461" d="M4.9,56.428c-5.4,3.447-6.29,9.951-2.872,17.078-.75-3.9-.331-7.877,3.369-13.31,1.626-2.386,6.3-4.829,10.321-5.161A13.591,13.591,0,0,0,4.9,56.428Z" transform="translate(0 -1.434)" fill="#adcded"/>
    <path id="Path_2462" data-name="Path 2462" d="M15.056,40.287s-2.463-2.522-7.088-.3S3.177,48.339,6.3,52.692c0,0,5.92-1.48,8.822-5.988s9.338-2.561,9.338-2.561S20.48,38.379,15.056,40.287Z" transform="translate(-0.11 -1.028)" fill="#0a429f"/>
    <path id="Path_2463" data-name="Path 2463" d="M7.968,39.985C3.343,42.205,3.177,48.339,6.3,52.692c3.262-12.395,8.753-12.4,8.753-12.4S12.593,37.765,7.968,39.985Z" transform="translate(-0.11 -1.028)" fill="#0d5bd9"/>
    <path id="Path_2464" data-name="Path 2464" d="M61.553,31.094c-5.978-2.541-8.948.8-8.948.8C45.721,29.03,40.93,37.316,40.93,37.316S48.973,34.483,52.9,40s11.5,7.059,11.5,7.059C68.1,41.376,67.531,33.636,61.553,31.094Z" transform="translate(-1.077 -0.793)" fill="#3ea5ff"/>
    <path id="Path_2465" data-name="Path 2465" d="M61.868,31.094c-5.978-2.541-8.948.8-8.948.8s6.942-.312,11.791,15.18C68.411,41.376,67.847,33.636,61.868,31.094Z" transform="translate(-1.393 -0.793)" fill="#0d5bd9"/>
    <path id="Path_2466" data-name="Path 2466" d="M54.079,17.732c-8.6,2.288-19.435,3.028-18.88,27.808a23.5,23.5,0,0,1,6.5-13.378c3.057-3.252,9.493-5.277,14.9-9.873S63.68,17.343,71.323,4.13C70.856,4.773,63.31,15.269,54.079,17.732Z" transform="translate(-0.926 -0.109)" fill="#1665ff"/>
  </g>
</svg>
