<svg xmlns="http://www.w3.org/2000/svg" width="28.902" height="29.985" viewBox="0 0 28.902 29.985">
  <g id="solid" transform="translate(-32.383 -24)">
    <path id="Path_6394" data-name="Path 6394" d="M64,72h1.034v1.034H64Z" transform="translate(-29.574 -44.898)" fill="#1a6cff"/>
    <path id="Path_6395" data-name="Path 6395" d="M160,72h1.034v1.034H160Z" transform="translate(-119.37 -44.898)" fill="#1a6cff"/>
    <path id="Path_6396" data-name="Path 6396" d="M0,0H1.034V1.034H0Z" transform="matrix(0.866, -0.5, 0.5, 0.866, 34.652, 28.981)" fill="#1a6cff"/>
    <path id="Path_6397" data-name="Path 6397" d="M0,0H1.034V1.034H0Z" transform="matrix(0.866, -0.5, 0.5, 0.866, 40.025, 25.879)" fill="#1a6cff"/>
    <path id="Path_6398" data-name="Path 6398" d="M0,0H1.034V1.034H0Z" transform="matrix(0.5, -0.866, 0.866, 0.5, 38.89, 25.122)" fill="#1a6cff"/>
    <path id="Path_6399" data-name="Path 6399" d="M112,24h1.034v1.034H112Z" transform="translate(-74.472)" fill="#1a6cff"/>
    <path id="Path_6400" data-name="Path 6400" d="M0,0H1.034V1.034H0Z" transform="matrix(0.866, -0.5, 0.5, 0.866, 35.788, 24.743)" fill="#1a6cff"/>
    <path id="Path_6401" data-name="Path 6401" d="M0,0H1.034V1.034H0Z" transform="matrix(0.5, -0.866, 0.866, 0.5, 40.025, 29.359)" fill="#1a6cff"/>
    <path id="Path_6402" data-name="Path 6402" d="M0,0H1.034V1.034H0Z" transform="matrix(0.5, -0.866, 0.866, 0.5, 34.653, 26.257)" fill="#1a6cff"/>
    <path id="Path_6403" data-name="Path 6403" d="M55.9,105.363h-.548l.274-.868Zm-8.711,0h-.7l.352-1.011Zm-9.14-.868.274.868h-.548Zm0,18.963a19.251,19.251,0,0,1-4.02-.382,3.384,3.384,0,0,1-1.642-.651l5.145-16.293v.265h1.034v-.265l3.121,9.882L39.1,123.435C38.757,123.45,38.4,123.458,38.045,123.458ZM52.5,128.269a16.744,16.744,0,0,1-5.667.876,16.744,16.744,0,0,1-5.667-.876c-1.252-.469-2.02-1.075-2.083-1.635l.25-.718h0l3.382-9.723,0-.014,3.6-10.34v.559h1.034v-.559l3.6,10.34,0,.014,3.382,9.723h0l.25.718c-.062.56-.83,1.166-2.082,1.636Zm7.142-5.193a19.251,19.251,0,0,1-4.02.382c-.358,0-.712-.008-1.057-.023l-2.581-7.421,3.121-9.882v.265H56.14v-.265l5.145,16.293A3.383,3.383,0,0,1,59.643,123.076Z" transform="translate(0 -75.159)" fill="#1a6cff"/>
    <path id="Path_6404" data-name="Path 6404" d="M336,72h1.034v1.034H336Z" transform="translate(-283.996 -44.898)" fill="#1a6cff"/>
    <path id="Path_6405" data-name="Path 6405" d="M432,72h1.034v1.034H432Z" transform="translate(-373.792 -44.898)" fill="#1a6cff"/>
    <path id="Path_6406" data-name="Path 6406" d="M0,0H1.034V1.034H0Z" transform="matrix(0.866, -0.5, 0.5, 0.866, 52.23, 28.98)" fill="#1a6cff"/>
    <path id="Path_6407" data-name="Path 6407" d="M0,0H1.034V1.034H0Z" transform="matrix(0.866, -0.5, 0.5, 0.866, 57.602, 25.879)" fill="#1a6cff"/>
    <path id="Path_6408" data-name="Path 6408" d="M0,0H1.034V1.034H0Z" transform="matrix(0.5, -0.866, 0.866, 0.5, 56.467, 25.122)" fill="#1a6cff"/>
    <path id="Path_6409" data-name="Path 6409" d="M384,24h1.034v1.034H384Z" transform="translate(-328.894)" fill="#1a6cff"/>
    <path id="Path_6410" data-name="Path 6410" d="M0,0H1.034V1.034H0Z" transform="matrix(0.866, -0.5, 0.5, 0.866, 53.365, 24.743)" fill="#1a6cff"/>
    <path id="Path_6411" data-name="Path 6411" d="M0,0H1.034V1.034H0Z" transform="matrix(0.5, -0.866, 0.866, 0.5, 57.603, 29.36)" fill="#1a6cff"/>
    <path id="Path_6412" data-name="Path 6412" d="M0,0H1.034V1.034H0Z" transform="matrix(0.5, -0.866, 0.866, 0.5, 52.23, 26.258)" fill="#1a6cff"/>
    <path id="Path_6413" data-name="Path 6413" d="M200,72h1.034v1.034H200Z" transform="translate(-156.785 -44.898)" fill="#1a6cff"/>
    <path id="Path_6414" data-name="Path 6414" d="M296,72h1.034v1.034H296Z" transform="translate(-246.581 -44.898)" fill="#1a6cff"/>
    <path id="Path_6415" data-name="Path 6415" d="M0,0H1.034V1.034H0Z" transform="matrix(0.866, -0.5, 0.5, 0.866, 43.441, 28.98)" fill="#1a6cff"/>
    <path id="Path_6416" data-name="Path 6416" d="M0,0H1.034V1.034H0Z" transform="matrix(0.866, -0.5, 0.5, 0.866, 48.814, 25.879)" fill="#1a6cff"/>
    <path id="Path_6417" data-name="Path 6417" d="M0,0H1.034V1.034H0Z" transform="matrix(0.5, -0.866, 0.866, 0.5, 47.679, 25.122)" fill="#1a6cff"/>
    <path id="Path_6418" data-name="Path 6418" d="M248,24h1.034v1.034H248Z" transform="translate(-201.683)" fill="#1a6cff"/>
    <path id="Path_6419" data-name="Path 6419" d="M0,0H1.034V1.034H0Z" transform="matrix(0.866, -0.5, 0.5, 0.866, 44.576, 24.743)" fill="#1a6cff"/>
    <path id="Path_6420" data-name="Path 6420" d="M0,0H1.034V1.034H0Z" transform="matrix(0.5, -0.866, 0.866, 0.5, 48.814, 29.36)" fill="#1a6cff"/>
    <path id="Path_6421" data-name="Path 6421" d="M0,0H1.034V1.034H0Z" transform="matrix(0.5, -0.866, 0.866, 0.5, 43.441, 26.258)" fill="#1a6cff"/>
  </g>
</svg>
