<svg xmlns="http://www.w3.org/2000/svg" width="30.195" height="30.195" viewBox="0 0 30.195 30.195">
  <g id="surface1" transform="translate(-0.375 0)">
    <path id="Path_6447" data-name="Path 6447" d="M15.74,12.809a.539.539,0,0,1,.25.141l7.688,7.688,1.391-1.391L17.38,11.56a.54.54,0,0,1-.142-.25l-.484-1.929L13.547,7.547,11.977,9.118l1.834,3.21Zm0,0" transform="translate(-11.397 -7.413)" fill="#1a6cff"/>
    <path id="Path_6448" data-name="Path 6448" d="M11.179,22.934l12.2-12.2a.538.538,0,0,1,.511-.142A5.351,5.351,0,0,0,30.569,5.38c0-.1,0-.2-.01-.305L27.722,7.912a.538.538,0,0,1-.55.13L23.945,6.966a.537.537,0,0,1-.34-.34L22.528,3.4a.538.538,0,0,1,.13-.55L25.5.011a5.353,5.353,0,0,0-5.518,6.67.538.538,0,0,1-.141.511l-12.2,12.2a.543.543,0,0,1-.511.142,5.313,5.313,0,0,0-1.3-.167,5.415,5.415,0,1,0,5.212,4.079A.539.539,0,0,1,11.179,22.934ZM7.135,26.9H4.517L3.226,24.745l1.291-2.152H7.135l1.291,2.152Zm2.076-6.3L21.045,8.765l.76.761L9.971,21.36Zm0,0" transform="translate(0 0)" fill="#1a6cff"/>
    <path id="Path_6449" data-name="Path 6449" d="M1459.5,1459.338a3.262,3.262,0,0,0,4.2-4.2Zm0,0" transform="translate(-1433.341 -1429.422)" fill="#1a6cff"/>
    <path id="Path_6450" data-name="Path 6450" d="M883.265,874.213l-6.041-6.044a1.679,1.679,0,0,1-2.367-2.363l-.856-.857-4.618,4.619.861.861a1.679,1.679,0,0,1,2.367,2.363l6.036,6.04c.066.066.135.127.206.186l4.6-4.6C883.392,874.348,883.331,874.279,883.265,874.213Zm-3.189,2.19-5.379-5.379.76-.761,5.379,5.379Zm0,0" transform="translate(-853.652 -849.664)" fill="#1a6cff"/>
  </g>
</svg>
