<svg xmlns="http://www.w3.org/2000/svg" width="29.804" height="35" viewBox="0 0 29.804 35">
  <g id="surface1" transform="translate(0 0.001)">
    <path id="Path_6362" data-name="Path 6362" d="M29.77,9.5V9.468c-.015-.336-.025-.692-.032-1.088a3.709,3.709,0,0,0-3.493-3.634,14.394,14.394,0,0,1-9.8-4.129L16.425.6a2.24,2.24,0,0,0-3.044,0l-.023.022a14.4,14.4,0,0,1-9.8,4.13A3.709,3.709,0,0,0,.068,8.381C.062,8.774.052,9.13.037,9.468l0,.063c-.078,4.1-.175,9.21,1.533,13.846A17.625,17.625,0,0,0,5.8,29.963a22.12,22.12,0,0,0,8.275,4.894,2.559,2.559,0,0,0,.339.092,2.505,2.505,0,0,0,.985,0,2.561,2.561,0,0,0,.34-.093A22.134,22.134,0,0,0,24,29.96a17.651,17.651,0,0,0,4.228-6.588C29.945,18.723,29.848,13.607,29.77,9.5ZM26.3,22.662c-1.8,4.886-5.48,8.241-11.245,10.257a.528.528,0,0,1-.065.018.462.462,0,0,1-.181,0,.519.519,0,0,1-.065-.017C8.977,30.906,5.3,27.553,3.5,22.667c-1.575-4.273-1.485-8.961-1.407-13.1V9.548c.016-.355.027-.728.033-1.137A1.649,1.649,0,0,1,3.676,6.8,18.019,18.019,0,0,0,9.792,5.452,16,16,0,0,0,14.776,2.1a.189.189,0,0,1,.254,0,16.007,16.007,0,0,0,4.984,3.349A18.02,18.02,0,0,0,26.13,6.8a1.648,1.648,0,0,1,1.554,1.614c.006.411.017.783.033,1.136C27.8,13.688,27.882,18.38,26.3,22.662Zm0,0" transform="translate(0)" fill="#7c7c7c"/>
    <path id="Path_6363" data-name="Path 6363" d="M99.121,128.41a8.723,8.723,0,1,0,8.722,8.722A8.732,8.732,0,0,0,99.121,128.41Zm0,15.391a6.669,6.669,0,1,1,6.669-6.669A6.676,6.676,0,0,1,99.121,143.8Zm0,0" transform="translate(-84.219 -119.633)" fill="#7c7c7c"/>
    <path id="Path_6364" data-name="Path 6364" d="M160.577,212.292l-4.051,4.051-1.1-1.1a1.027,1.027,0,0,0-1.452,1.452l1.826,1.826a1.027,1.027,0,0,0,1.452,0l4.778-4.778a1.027,1.027,0,0,0-1.452-1.452Zm0,0" transform="translate(-143.168 -197.501)" fill="#7c7c7c"/>
  </g>
</svg>
