<svg id="template" xmlns="http://www.w3.org/2000/svg" width="29.771" height="29.771" viewBox="0 0 29.771 29.771">
  <g id="Group_7745" data-name="Group 7745">
    <g id="Group_7744" data-name="Group 7744">
      <path id="Path_6390" data-name="Path 6390" d="M12.4,0H1.24A1.245,1.245,0,0,0,0,1.24V14.886a1.244,1.244,0,0,0,1.24,1.24H12.4a1.244,1.244,0,0,0,1.241-1.24V1.24A1.245,1.245,0,0,0,12.4,0Z" fill="#1a6cff"/>
    </g>
  </g>
  <g id="Group_7747" data-name="Group 7747" transform="translate(16.126 13.645)">
    <g id="Group_7746" data-name="Group 7746">
      <path id="Path_6391" data-name="Path 6391" d="M234.27,187.735H223.106a1.244,1.244,0,0,0-1.241,1.24v13.645a1.245,1.245,0,0,0,1.241,1.24H234.27a1.245,1.245,0,0,0,1.24-1.24V188.975A1.244,1.244,0,0,0,234.27,187.735Z" transform="translate(-221.865 -187.735)" fill="#1a6cff"/>
    </g>
  </g>
  <g id="Group_7749" data-name="Group 7749" transform="translate(0 18.607)">
    <g id="Group_7748" data-name="Group 7748">
      <path id="Path_6392" data-name="Path 6392" d="M12.4,256H1.24A1.245,1.245,0,0,0,0,257.24v8.684a1.245,1.245,0,0,0,1.24,1.24H12.4a1.245,1.245,0,0,0,1.241-1.24V257.24A1.245,1.245,0,0,0,12.4,256Z" transform="translate(0 -256)" fill="#1a6cff"/>
    </g>
  </g>
  <g id="Group_7751" data-name="Group 7751" transform="translate(16.126)">
    <g id="Group_7750" data-name="Group 7750">
      <path id="Path_6393" data-name="Path 6393" d="M234.27,0H223.106a1.245,1.245,0,0,0-1.241,1.24V9.924a1.245,1.245,0,0,0,1.241,1.24H234.27a1.245,1.245,0,0,0,1.24-1.24V1.24A1.245,1.245,0,0,0,234.27,0Z" transform="translate(-221.865)" fill="#1a6cff"/>
    </g>
  </g>
</svg>
