<svg id="all" xmlns="http://www.w3.org/2000/svg" width="35" height="35" viewBox="0 0 35 35">
  <path id="Path_6365" data-name="Path 6365" d="M31.719,35H3.281A3.285,3.285,0,0,1,0,31.719V3.281A3.285,3.285,0,0,1,3.281,0H31.719A3.285,3.285,0,0,1,35,3.281V31.719A3.285,3.285,0,0,1,31.719,35ZM3.281,2.188A1.1,1.1,0,0,0,2.188,3.281V31.719a1.1,1.1,0,0,0,1.094,1.094H31.719a1.1,1.1,0,0,0,1.094-1.094V3.281a1.1,1.1,0,0,0-1.094-1.094Zm0,0" fill="#7c7c7c"/>
  <path id="Path_6366" data-name="Path 6366" d="M33.906,242.188H1.094a1.094,1.094,0,0,1,0-2.187H33.906a1.094,1.094,0,0,1,0,2.188Zm0,0" transform="translate(0 -223.594)" fill="#7c7c7c"/>
  <path id="Path_6367" data-name="Path 6367" d="M241.094,35A1.094,1.094,0,0,1,240,33.906V1.094a1.094,1.094,0,0,1,2.188,0V33.906A1.094,1.094,0,0,1,241.094,35Zm0,0" transform="translate(-223.594)" fill="#7c7c7c"/>
</svg>
