<svg id="surface1" xmlns="http://www.w3.org/2000/svg" width="29.787" height="29.787" viewBox="0 0 29.787 29.787">
  <path id="Path_6460" data-name="Path 6460" d="M9.574,200H0v5.319H9.574Zm-6.539,3.347-.752.752L1.22,203.036a.532.532,0,0,1,0-.752l1.064-1.064.752.752-.688.688Zm1.725,1.076-1.011-.336L4.813,200.9l1.011.336Zm3.594-1.388L7.291,204.1l-.752-.752.688-.688-.688-.688.752-.752,1.064,1.064A.532.532,0,0,1,8.355,203.036Zm0,0" transform="translate(0 -191.49)" fill="#1a6cff"/>
  <path id="Path_6461" data-name="Path 6461" d="M487.5,455.319h9.042V450H487.5Zm3.191-4.255h4.787v1.064h-4.787Zm0,2.128h4.787v1.064h-4.787Zm-2.128-2.128h1.064v1.064h-1.064Zm0,2.128h1.064v1.064h-1.064Zm0,0" transform="translate(-466.756 -430.851)" fill="#1a6cff"/>
  <path id="Path_6462" data-name="Path 6462" d="M91.489,25V18.617a.532.532,0,0,1,.532-.532H98.4V13.83H84.042a.532.532,0,0,1-.532-.532V2.66a.532.532,0,0,1,.532-.532H98.4V1.064A1.064,1.064,0,0,0,97.553.022,1.05,1.05,0,0,0,97.34,0H76.064A1.064,1.064,0,0,0,75,1.064V7.447h6.915a.532.532,0,0,1,.532.532v6.383a.532.532,0,0,1-.532.532H75V26.6H95.744a.532.532,0,0,1,.532.532v1.6a1.064,1.064,0,1,0,2.128,0V25.531H92.021A.532.532,0,0,1,91.489,25ZM80.319,1.064h1.064V2.128H80.319Zm-2.128,0h1.064V2.128H78.191Zm-2.128,0h1.064V2.128H76.064Zm0,3.191V3.191h6.383V4.255ZM90.425,22.872a.532.532,0,0,1-.532.532H76.6a.532.532,0,0,1-.532-.532V16.489a.532.532,0,0,1,.532-.532h13.3a.532.532,0,0,1,.532.532Zm0,0" transform="translate(-71.809 0)" fill="#1a6cff"/>
  <path id="Path_6463" data-name="Path 6463" d="M23.4,650H0v1.064a1.064,1.064,0,0,0,1.064,1.064H23.69a2.112,2.112,0,0,1-.286-1.064Zm0,0" transform="translate(0 -622.341)" fill="#1a6cff"/>
  <path id="Path_6464" data-name="Path 6464" d="M125,405.319h12.234V400H125Zm11.17-1.064h-2.66v-1.064h2.66Zm-1.064-3.191h1.064v1.064h-1.064Zm-5.851,0h4.787v1.064h-4.787Zm-3.191,0h2.128v1.064h-2.128Zm0,2.128h6.383v1.064h-6.383Zm0,0" transform="translate(-119.681 -382.979)" fill="#1a6cff"/>
  <path id="Path_6465" data-name="Path 6465" d="M551.6,125.8a.8.8,0,1,1-.8-.8A.8.8,0,0,1,551.6,125.8Zm0,0" transform="translate(-526.596 -119.681)" fill="#1a6cff"/>
  <path id="Path_6466" data-name="Path 6466" d="M309.967,205.264a.531.531,0,0,1-.532-.026l-4.658-3.012L300,205.092v1.295h17.021V205.1l-3.2-1.831Zm0,0" transform="translate(-287.234 -193.621)" fill="#1a6cff"/>
  <path id="Path_6467" data-name="Path 6467" d="M300,75v7.039l4.513-2.708a.532.532,0,0,1,.563.009l4.675,3.024,3.834-1.986a.532.532,0,0,1,.509.011l2.927,1.673V75Zm11.436,4.787a1.862,1.862,0,1,1,1.862-1.862A1.862,1.862,0,0,1,311.436,79.787Zm0,0" transform="translate(-287.234 -71.809)" fill="#1a6cff"/>
</svg>
