<svg xmlns="http://www.w3.org/2000/svg" width="26.278" height="35" viewBox="0 0 26.278 35">
  <g id="click" transform="translate(-0.284)">
    <path id="Path_6386" data-name="Path 6386" d="M23.734,46.55h-.049a2.7,2.7,0,0,0-1.819.692,2.837,2.837,0,0,0-2.635-1.923,2.733,2.733,0,0,0-1.953.84,2.8,2.8,0,0,0-2.5-1.6h-.052a2.562,2.562,0,0,0-1.607.535v-6.78A2.91,2.91,0,0,0,10.3,35.348a2.9,2.9,0,0,0-2.82,2.969L7.465,51.768,6.7,50.844A3.84,3.84,0,0,0,3.99,49.419a3.778,3.778,0,0,0-2.83,1L.5,50.969a.589.589,0,0,0-.147.725l6.44,12.379a6.64,6.64,0,0,0,5.847,3.673H19.9V67.74a6.91,6.91,0,0,0,6.667-7.114c0-1.754-.005-3.062,0-4.121,0-2.835,0-3.881-.006-7A2.89,2.89,0,0,0,23.734,46.55Zm1.638,9.95c0,1.06,0,2.373,0,4.127a5.749,5.749,0,0,1-5.507,5.941H12.638a5.467,5.467,0,0,1-4.8-3.04L1.615,51.575l.307-.256.023-.02a2.614,2.614,0,0,1,1.962-.7,2.672,2.672,0,0,1,1.885,1l1.8,2.193a.589.589,0,0,0,1.044-.373l.011-15.094a1.733,1.733,0,0,1,1.65-1.792,1.733,1.733,0,0,1,1.649,1.794v9.1c0,.032,0,.064,0,.1,0,.014,0,.028,0,.041v3.891a.589.589,0,1,0,1.178,0V47.44a1.651,1.651,0,0,1,1.607-1.7h.052a1.719,1.719,0,0,1,1.653,1.775v3.56a.589.589,0,1,0,1.178,0V48.283a1.628,1.628,0,1,1,3.238,0v2.635a.589.589,0,1,0,1.178,0V49.491a1.711,1.711,0,0,1,1.656-1.763h.049A1.708,1.708,0,0,1,25.37,49.5C25.377,52.623,25.376,53.668,25.372,56.5Zm0,0" transform="translate(0 -32.746)" fill="#7c7c7c"/>
    <path id="Path_6387" data-name="Path 6387" d="M65.2,5.827a.589.589,0,0,0,.589-.589,4.08,4.08,0,0,1,8.16,0,.589.589,0,0,0,1.178,0,5.258,5.258,0,0,0-10.515,0A.589.589,0,0,0,65.2,5.827Zm0,0" transform="translate(-59.591)" fill="#7c7c7c"/>
  </g>
</svg>
