<svg xmlns="http://www.w3.org/2000/svg" width="38.832" height="38.832" viewBox="0 0 38.832 38.832">
  <g id="Group_2202" data-name="Group 2202" transform="translate(24.455 -10.078) rotate(45)">
    <path id="Path_512" data-name="Path 512" d="M14.629,4.576,13.109,2.026H5.96A3.035,3.035,0,0,0,3.107,0,3.1,3.1,0,0,0,0,3.04a3.1,3.1,0,0,0,3.107,3.04A3.034,3.034,0,0,0,5.96,4.052h5.671a9.059,9.059,0,0,0-3.356,6.08H6.147v6.147h6.079V10.132H10.3A7.118,7.118,0,0,1,14.629,4.576Z" transform="translate(0 18.305)" fill="#777"/>
    <path id="Path_513" data-name="Path 513" d="M11.522,0A3.035,3.035,0,0,0,8.669,2.026H1.519L0,4.576a7.118,7.118,0,0,1,4.327,5.557H2.4v6.147H8.482V10.132H6.353A9.056,9.056,0,0,0,3,4.053H8.669a3.035,3.035,0,0,0,2.853,2.026,3.1,3.1,0,0,0,3.107-3.04A3.1,3.1,0,0,0,11.522,0Z" transform="translate(19.956 18.305)" fill="#777"/>
    <path id="Path_514" data-name="Path 514" d="M0,0H6.079V4.053H0Z" transform="translate(14.253)" fill="#777"/>
    <path id="Path_515" data-name="Path 515" d="M10.725,0H4.291A6.389,6.389,0,0,1,.976,4.227L0,4.715l6.495,10.9V6.147H8.521v9.466l6.495-10.9-.976-.488A6.389,6.389,0,0,1,10.725,0Z" transform="translate(9.784 6.079)" fill="#777"/>
  </g>
</svg>
