<svg xmlns="http://www.w3.org/2000/svg" width="29.772" height="29.771" viewBox="0 0 29.772 29.771">
  <g id="edit" transform="translate(0 -0.002)">
    <g id="Group_7743" data-name="Group 7743" transform="translate(0 0.002)">
      <g id="Group_7742" data-name="Group 7742" transform="translate(0 0)">
        <path id="Path_6388" data-name="Path 6388" d="M22.067,83.377a.7.7,0,0,0-.957,0L8.24,96.258a.677.677,0,0,0,.176,1.085l1.057.529v1.779l-3.237.926-3.267-3.27.925-3.24H5.671L6.2,95.124a.678.678,0,0,0,.5.366.678.678,0,0,0,.587-.19L20.153,82.42a.677.677,0,0,0,0-.958l-2.488-2.491a.676.676,0,0,0-.478-.2h0a.677.677,0,0,0-.479.2L2.9,92.913c-.007.007-.006.017-.013.024a.662.662,0,0,0-.158.267L1.557,97.318.026,102.685a.677.677,0,0,0,.651.863.687.687,0,0,0,.186-.026l5.362-1.533,4.111-1.176c.012,0,.021-.013.033-.017a1.25,1.25,0,0,0,.229-.135c.009-.008.02-.011.029-.019L24.553,86.827a.677.677,0,0,0,0-.96Z" transform="translate(0 -73.776)" fill="#1a6cff"/>
        <path id="Path_6389" data-name="Path 6389" d="M300.868,4.833,296.808.77a2.767,2.767,0,0,0-3.829,0l-2.479,2.5a.677.677,0,0,0,0,.956l6.908,6.913a.676.676,0,0,0,.955,0l2.5-2.483a2.71,2.71,0,0,0,0-3.83Z" transform="translate(-271.889 -0.002)" fill="#1a6cff"/>
      </g>
    </g>
  </g>
</svg>
