<svg xmlns="http://www.w3.org/2000/svg" width="35" height="35.004" viewBox="0 0 35 35.004">
  <path id="gradient" d="M17.813,24.477,29.979,12.31,22.535,4.866,10.558,16.843V0H.031V29.736A5.27,5.27,0,0,0,5.295,35v0H35.031V24.477ZM8.508,11.536H2.082V7.793H8.508Zm0,2.051v3.743H2.082V13.587Zm0,5.794v3.743H2.082V19.38Zm10.414,1.087-2.647,2.647-4.544-4.544,2.647-2.647Zm-3.094-5.994,2.647-2.647,4.544,4.544-2.647,2.647Zm-5.27,10V20.3l4.179,4.179Zm0,5.259V26.528h5.092v6.426H9.456A5.236,5.236,0,0,0,10.558,29.736ZM17.7,26.528h3.743v6.426H17.7Zm5.794,0h3.743v6.426H23.5ZM27.079,12.31l-2.61,2.61-4.544-4.544,2.61-2.61ZM8.508,2.051V5.742H2.082V2.051ZM2.082,29.736V25.174H8.508v4.562a3.213,3.213,0,0,1-6.426,0Zm30.9,3.217H29.289V26.528H32.98Z" transform="translate(-0.031)" fill="#7c7c7c"/>
</svg>
