<svg xmlns="http://www.w3.org/2000/svg" xmlns:xlink="http://www.w3.org/1999/xlink" width="2135.732" height="360.366" viewBox="0 0 2135.732 360.366">
  <defs>
    <linearGradient id="linear-gradient" x1="-0.08" y1="0.503" x2="0.958" y2="0.503" gradientUnits="objectBoundingBox">
      <stop offset="0" stop-color="#fb6b14"/>
      <stop offset="1" stop-color="#fdb522"/>
    </linearGradient>
  </defs>
  <g id="Group_3243" data-name="Group 3243" transform="translate(151.732 -716)">
    <g id="Group_3025" data-name="Group 3025" transform="matrix(0.616, 0.788, -0.788, 0.616, 202.059, 642.186)">
      <g id="Group_3016" data-name="Group 3016" transform="translate(68.231 108.04)">
        <path id="Path_2471" data-name="Path 2471" d="M64.543,0c-16.4,1.575-24.918,21.019-24.568,37.489.375,16.445,6.048,32.866,3.2,49.086-3.624,20.569-20.419,37.089-23.568,57.758-3.724,24.368,12.2,47.211,15.82,71.579,1.774,11.872.625,24.218,4.249,35.64C45.8,270.826,66.568,284.272,86.662,282s37.314-20.019,39.014-40.163c1.575-18.795-8.9-37.264-6.273-55.934,1.924-13.8,10.9-26.417,10.047-40.338-1.025-16.545-15.471-29.192-19.844-45.187-4.349-16,1.9-32.916,1.125-49.486C109.33,21.173,94.285-.446,64.543,0" transform="translate(-19.046 0.003)" fill="#1868ff"/>
      </g>
      <g id="Group_3018" data-name="Group 3018" transform="translate(0 182.889)">
        <g id="Group_3017" data-name="Group 3017">
          <path id="Path_2473" data-name="Path 2473" d="M1.582,55.03C-4.9,93.967,9.463,141.179,27.444,176.319A187.105,187.105,0,0,0,110.262,258.1c3.976,1.97,8.991,3.761,12.609,1.182,2.973-2.113,3.582-6.2,3.833-9.851A194.4,194.4,0,0,0,96.507,131.4,194.36,194.36,0,0,0,1.582,55.03" transform="translate(0.002 -55.03)" fill="#40a8ff"/>
        </g>
      </g>
      <g id="Group_3021" data-name="Group 3021" transform="translate(46.961 256.786)">
        <g id="Group_3020" data-name="Group 3020">
          <g id="Group_3019" data-name="Group 3019">
            <path id="Path_2474" data-name="Path 2474" d="M120.577,289.94a10.479,10.479,0,0,1-.967-2.257c-.645-1.755-1.433-3.9-2.4-6.591-2.006-5.731-4.979-14.042-8.848-24.215A836.986,836.986,0,0,0,74.3,179.039a844.572,844.572,0,0,0-41.982-73.862C26.477,96.007,21.641,88.628,18.2,83.613c-1.576-2.364-2.83-4.3-3.869-5.839a10.344,10.344,0,0,1-1.218-2.113,10.265,10.265,0,0,1,1.576,1.863c1.11,1.469,2.507,3.331,4.191,5.624,3.654,4.907,8.669,12.143,14.722,21.206a725.47,725.47,0,0,1,42.662,73.719A716.493,716.493,0,0,1,109.8,256.34c3.654,10.281,6.448,18.627,8.2,24.5.824,2.722,1.469,4.943,1.97,6.734A8.752,8.752,0,0,1,120.577,289.94Z" transform="translate(-13.108 -75.66)" fill="#263238"/>
          </g>
        </g>
      </g>
      <g id="Group_3024" data-name="Group 3024" transform="translate(121.711 171.953)">
        <g id="Group_3023" data-name="Group 3023" transform="translate(0)">
          <g id="Group_3022" data-name="Group 3022">
            <path id="Path_2475" data-name="Path 2475" d="M44.134,30.75a23.708,23.708,0,0,1,.179,3.8c.036,2.687.036,6.3.072,10.854V85.269c-.036,33.671-.036,80.167.251,131.533.322,51.367.86,97.862,1.325,131.533.215,16.657.358,30.233.466,39.868,0,4.549.036,8.167.036,10.854a22.328,22.328,0,0,1-.143,3.8A25.861,25.861,0,0,1,46,399.093c-.107-2.686-.251-6.269-.466-10.818-.287-9.636-.681-23.176-1.182-39.868-.86-33.671-1.648-80.167-1.97-131.569-.287-51.367-.036-97.9.394-131.569.287-16.692.537-30.233.716-39.868.143-4.549.251-8.167.322-10.818A35.088,35.088,0,0,1,44.134,30.75Z" transform="translate(-42.256 -30.75)" fill="#263238"/>
          </g>
        </g>
      </g>
    </g>
    <g id="Group_3011" data-name="Group 3011" transform="translate(1683.997 716)">
      <path id="Path_2451" data-name="Path 2451" d="M52.212,39.429c-7.991,10.317-1.726,21.309-1.726,21.309a40.872,40.872,0,0,0-13.318-.6c-8.178.788-13.055,19.921-13.055,19.921l9.6,23.185L22.5,100.429C25.389,183.151,77.31,237.4,77.31,237.4a42.244,42.244,0,0,0,1.538-15.757c-2.138-19.733-20.784-29.75-26.036-65.352-12.418-84,37.966-63.251,37.365-97.128-.525-30.988,10.8-57.7,11.442-59.124V0h0C82.75,15.194,60.2,29.112,52.212,39.429Z" transform="translate(61.901)" fill="#1665ff"/>
      <g id="Group_3010" data-name="Group 3010" transform="translate(30.267 156.635)">
        <g id="Group_3009" data-name="Group 3009">
          <path id="Path_2452" data-name="Path 2452" d="M8.07,60.427s18.2-2.251,30.275,12.83c13.918,17.407,32.789,42.28,42.955,42.28,30.087,0-3.639-57.849-12.38-67.228C50.35,28.314,8.07,60.427,8.07,60.427Z" transform="translate(-8.07 -41.752)" fill="#40a8ff"/>
        </g>
      </g>
      <path id="Path_2453" data-name="Path 2453" d="M111.035,46.718s-.45-8.779,6.34-20.746C116.212,26.347,78.847,38.5,76.6,43c-2.288,4.577-5.215,21.534-5.215,21.534s-7.766-10.167-7.5-13.618-59.462,66.252-18.2,160.6c0,0,5.7-9.717,5.7-9.754-3.076-5.927-17.707-48.808,19.958-89.55,11.667-12.643,36.578-20.333,57.4-38.041,20.784-17.67,27.274-19.058,56.723-69.966.075-.075.075-.113.075-.113S161.156,19.932,140.9,22.408C120.676,24.959,111.035,46.718,111.035,46.718Z" transform="translate(85.688 11.281)" fill="#0a429f"/>
      <path id="Path_2454" data-name="Path 2454" d="M158.643,53.117C86.163,30.307,31.09,91.683,31.09,91.683l15.119,13.205c4.877-20.333,57.024-45.206,94.427-45.206,43.405,0,73.831,37.178,73.831,37.178C201.485,70.712,172.073,57.356,158.643,53.117Z" transform="translate(85.537 132.172)" fill="#0d5bd9"/>
      <path id="Path_2455" data-name="Path 2455" d="M63.056,56.471C55.74,86.408,26.178,82.357,27.829,127.3c1.313,35.565,19.658,77.582,30.012,93.789C55.7,201.356,43.66,191.9,38.371,156.3c-12.418-84,37.966-63.251,37.365-97.128C75.173,28.147,86.5,1.436,87.141.01,86.165,1.473,69.358,30.735,63.056,56.471Z" transform="translate(76.381 0.028)" fill="#0d5bd9"/>
      <path id="Path_2456" data-name="Path 2456" d="M143.961,58.538C81.685,38.955,32.69,89.488,32.69,89.488l8.929,10.429h5.365c11.18-18.383,56.423-35.64,87.936-32.526,34.289,3.376,34.552,18.8,34.064,22.622C172.548,72.906,156.078,62.364,143.961,58.538Z" transform="translate(89.94 148.66)" fill="#1665ff"/>
      <path id="Path_2457" data-name="Path 2457" d="M69.13,63.62c-.075.3-.075.563-.15.863A8.691,8.691,0,0,0,69.13,63.62Z" transform="translate(189.794 175.054)" fill="url(#linear-gradient)"/>
      <path id="Path_2458" data-name="Path 2458" d="M72.682,43.268c-10.5,12.418-67.153,100.8-29.112,99.041,12.868-.6,52.672-46.444,69.254-69.254,14.368-19.808,37.516-17.97,37.516-17.97S94.966,16.932,72.682,43.268Z" transform="translate(84.162 93.551)" fill="#0a429f"/>
      <path id="Path_2459" data-name="Path 2459" d="M21.98,56.39c9.3,11.18,6.265,31.738,0,37.028H64.673C64.935,70.383,21.98,56.39,21.98,56.39Z" transform="translate(60.471 155.16)" fill="#333242"/>
      <path id="Path_2460" data-name="Path 2460" d="M60.5,55.9c-6.3.6-24.5-5.515-41.642,5.4C-1.959,74.582-5.373,99.643,7.795,127.1a2.227,2.227,0,0,1,.15.3s38.716-9.754,57.024-45.281c17.182-33.351,57.361-3.339,59.837,15.907h9.341C130.471,88.613,125.106,49.785,60.5,55.9Z" transform="translate(0 150.586)" fill="#1665ff"/>
      <path id="Path_2461" data-name="Path 2461" d="M18.862,61.949c-20.821,13.28-24.235,38.341-11.067,65.8C4.906,112.707,6.519,97.4,20.775,76.467,27.04,67.276,45.048,57.86,60.542,56.584,54.427,54.821,36.006,51.032,18.862,61.949Z" transform="translate(0 149.939)" fill="#adcded"/>
      <path id="Path_2462" data-name="Path 2462" d="M46.062,43.756s-9.491-9.717-27.311-1.163S.294,74.781,12.336,91.551c0,0,22.809-5.7,33.989-23.072C57.5,51.147,82.3,58.612,82.3,58.612S66.959,36.4,46.062,43.756Z" transform="translate(11.515 107.506)" fill="#0a429f"/>
      <path id="Path_2463" data-name="Path 2463" d="M18.751,42.593C.931,51.147.294,74.781,12.336,91.551,24.9,43.794,46.062,43.756,46.062,43.756S36.571,34.04,18.751,42.593Z" transform="translate(11.515 107.506)" fill="#0d5bd9"/>
      <path id="Path_2464" data-name="Path 2464" d="M120.388,33.816c-23.035-9.792-34.477,3.076-34.477,3.076-26.523-11.03-44.981,20.9-44.981,20.9S71.918,46.872,87.037,68.143c15.119,21.309,44.306,27.2,44.306,27.2C145.6,73.433,143.422,43.608,120.388,33.816Z" transform="translate(112.613 82.932)" fill="#3ea5ff"/>
      <path id="Path_2465" data-name="Path 2465" d="M87.4,33.816C64.362,24.025,52.92,36.892,52.92,36.892s26.749-1.2,45.431,58.487C112.607,73.433,110.431,43.608,87.4,33.816Z" transform="translate(145.604 82.932)" fill="#0d5bd9"/>
      <path id="Path_2466" data-name="Path 2466" d="M108,56.539C74.874,65.355,33.119,68.206,35.258,163.683c1.876-15.419,8.4-33.764,25.06-51.546C72.1,99.607,96.9,91.8,117.717,74.1,138.5,56.427,144.991,55.039,174.44,4.13,172.64,6.606,143.565,47.048,108,56.539Z" transform="translate(96.788 11.364)" fill="#1665ff"/>
    </g>
  </g>
</svg>
