<svg xmlns="http://www.w3.org/2000/svg" xmlns:xlink="http://www.w3.org/1999/xlink" width="198" height="249" viewBox="0 0 198 249">
  <defs>
    <clipPath id="clip-Artboard_1">
      <rect width="198" height="249"/>
    </clipPath>
  </defs>
  <g id="Artboard_1" data-name="Artboard – 1" clip-path="url(#clip-Artboard_1)">
    <rect width="198" height="249" fill="rgba(255,255,255,0)"/>
    <g id="Group_8580" data-name="Group 8580" transform="matrix(0.616, 0.788, -0.788, 0.616, 202.059, -110.813)">
      <g id="Group_3016" data-name="Group 3016" transform="translate(68.231 108.04)">
        <path id="Path_2471" data-name="Path 2471" d="M64.543,0c-16.4,1.575-24.918,21.019-24.568,37.489.375,16.445,6.048,32.866,3.2,49.086-3.624,20.569-20.419,37.089-23.568,57.758-3.724,24.368,12.2,47.211,15.82,71.579,1.774,11.872.625,24.218,4.249,35.64C45.8,270.826,66.568,284.272,86.662,282s37.314-20.019,39.014-40.163c1.575-18.795-8.9-37.264-6.273-55.934,1.924-13.8,10.9-26.417,10.047-40.338-1.025-16.545-15.471-29.192-19.844-45.187-4.349-16,1.9-32.916,1.125-49.486C109.33,21.173,94.285-.446,64.543,0" transform="translate(-19.046 0.003)" fill="#1868ff"/>
      </g>
      <g id="Group_3018" data-name="Group 3018" transform="translate(0 182.889)">
        <g id="Group_3017" data-name="Group 3017">
          <path id="Path_2473" data-name="Path 2473" d="M1.582,55.03C-4.9,93.967,9.463,141.179,27.444,176.319A187.105,187.105,0,0,0,110.262,258.1c3.976,1.97,8.991,3.761,12.609,1.182,2.973-2.113,3.582-6.2,3.833-9.851A194.4,194.4,0,0,0,96.507,131.4,194.36,194.36,0,0,0,1.582,55.03" transform="translate(0.002 -55.03)" fill="#40a8ff"/>
        </g>
      </g>
      <g id="Group_3021" data-name="Group 3021" transform="translate(46.961 256.786)">
        <g id="Group_3020" data-name="Group 3020">
          <g id="Group_3019" data-name="Group 3019">
            <path id="Path_2474" data-name="Path 2474" d="M120.577,289.94a10.479,10.479,0,0,1-.967-2.257c-.645-1.755-1.433-3.9-2.4-6.591-2.006-5.731-4.979-14.042-8.848-24.215A836.986,836.986,0,0,0,74.3,179.039a844.572,844.572,0,0,0-41.982-73.862C26.477,96.007,21.641,88.628,18.2,83.613c-1.576-2.364-2.83-4.3-3.869-5.839a10.344,10.344,0,0,1-1.218-2.113,10.265,10.265,0,0,1,1.576,1.863c1.11,1.469,2.507,3.331,4.191,5.624,3.654,4.907,8.669,12.143,14.722,21.206a725.47,725.47,0,0,1,42.662,73.719A716.493,716.493,0,0,1,109.8,256.34c3.654,10.281,6.448,18.627,8.2,24.5.824,2.722,1.469,4.943,1.97,6.734A8.752,8.752,0,0,1,120.577,289.94Z" transform="translate(-13.108 -75.66)" fill="#263238"/>
          </g>
        </g>
      </g>
      <g id="Group_3024" data-name="Group 3024" transform="translate(121.711 171.953)">
        <g id="Group_3023" data-name="Group 3023" transform="translate(0)">
          <g id="Group_3022" data-name="Group 3022">
            <path id="Path_2475" data-name="Path 2475" d="M44.134,30.75a23.708,23.708,0,0,1,.179,3.8c.036,2.687.036,6.3.072,10.854V85.269c-.036,33.671-.036,80.167.251,131.533.322,51.367.86,97.862,1.325,131.533.215,16.657.358,30.233.466,39.868,0,4.549.036,8.167.036,10.854a22.328,22.328,0,0,1-.143,3.8A25.861,25.861,0,0,1,46,399.093c-.107-2.686-.251-6.269-.466-10.818-.287-9.636-.681-23.176-1.182-39.868-.86-33.671-1.648-80.167-1.97-131.569-.287-51.367-.036-97.9.394-131.569.287-16.692.537-30.233.716-39.868.143-4.549.251-8.167.322-10.818A35.088,35.088,0,0,1,44.134,30.75Z" transform="translate(-42.256 -30.75)" fill="#263238"/>
          </g>
        </g>
      </g>
    </g>
  </g>
</svg>
