<svg xmlns="http://www.w3.org/2000/svg" width="29.787" height="29.787" viewBox="0 0 29.787 29.787">
  <g id="pencil" transform="translate(-3 -3)">
    <path id="Path_6422" data-name="Path 6422" d="M35,27h2.054v4.108H35Z" transform="translate(-15.566 -11.675)" fill="#1a6cff"/>
    <path id="Path_6423" data-name="Path 6423" d="M42.027,19H41v6.9l1.027-1.34Z" transform="translate(-18.485 -7.783)" fill="#1a6cff"/>
    <path id="Path_6424" data-name="Path 6424" d="M25,11h4.108v1.027H25Z" transform="translate(-10.702 -3.892)" fill="#1a6cff"/>
    <path id="Path_6425" data-name="Path 6425" d="M29.108,15H25V25.271h4.108Z" transform="translate(-10.702 -5.837)" fill="#1a6cff"/>
    <path id="Path_6426" data-name="Path 6426" d="M27.614,3.126A.226.226,0,0,0,27.41,3H27.3a.226.226,0,0,0-.2.126L25.618,6.081h3.474Z" transform="translate(-11.002)" fill="#1a6cff"/>
    <path id="Path_6427" data-name="Path 6427" d="M45,15.514v5.761l1.027-1.34V15.514a.514.514,0,1,0-1.027,0Z" transform="translate(-20.43 -5.837)" fill="#1a6cff"/>
    <path id="Path_6428" data-name="Path 6428" d="M43.949,7a2.788,2.788,0,0,0-2.165,1.027h4.331A2.789,2.789,0,0,0,43.949,7Z" transform="translate(-18.866 -1.946)" fill="#1a6cff"/>
    <path id="Path_6429" data-name="Path 6429" d="M18.969,13.162a.237.237,0,0,0-.426,0l-1.1,2.933h2.626Z" transform="translate(-7.026 -4.879)" fill="#1a6cff"/>
    <path id="Path_6430" data-name="Path 6430" d="M42.027,13.568a1.541,1.541,0,0,1,3.081,0v.514h1.027V11H41v3.081h1.027Z" transform="translate(-18.485 -3.892)" fill="#1a6cff"/>
    <path id="Path_6431" data-name="Path 6431" d="M49,20.541l1.027-1.34V19H49Z" transform="translate(-22.376 -7.783)" fill="#1a6cff"/>
    <path id="Path_6432" data-name="Path 6432" d="M52.541,23.049l-.827-.634-4.74,6.463h1.1Z" transform="translate(-21.391 -9.444)" fill="#1a6cff"/>
    <path id="Path_6433" data-name="Path 6433" d="M21,49.325H32.3V37H21Zm3.72-9.758a2.179,2.179,0,0,1,1.541.638l.389.389.389-.389a2.179,2.179,0,1,1,3.081,3.081l-3.47,3.47-3.47-3.47a2.179,2.179,0,0,1,1.541-3.72Z" transform="translate(-8.756 -16.539)" fill="#1a6cff"/>
    <path id="Path_6434" data-name="Path 6434" d="M45,36.251V48.576h6.163a2.056,2.056,0,0,0,2.054-2.054V35.46a3.066,3.066,0,0,1-2.054.791Z" transform="translate(-20.43 -15.79)" fill="#1a6cff"/>
    <path id="Path_6435" data-name="Path 6435" d="M47.46,20l-5.9,7.7h1.509l5.2-7.088Z" transform="translate(-18.755 -8.269)" fill="#1a6cff"/>
    <path id="Path_6436" data-name="Path 6436" d="M57.457,15.048,54.6,16.888l2.131,1.633,1.137-3.049a.285.285,0,0,0,.017-.1v-.09a.289.289,0,0,0-.431-.236Z" transform="translate(-25.102 -5.841)" fill="#1a6cff"/>
    <path id="Path_6437" data-name="Path 6437" d="M54.752,27.08l-3.117,4.067H54.39a2.049,2.049,0,0,0,.362-4.067Z" transform="translate(-23.658 -11.713)" fill="#1a6cff"/>
    <path id="Path_6438" data-name="Path 6438" d="M3,35.46V46.522a2.056,2.056,0,0,0,2.054,2.054h6.163V36.251H5.054A3.066,3.066,0,0,1,3,35.46Z" transform="translate(0 -15.79)" fill="#1a6cff"/>
    <path id="Path_6439" data-name="Path 6439" d="M9.314,19.556v-7.8l.443-1.182-2.8-7.327L3.311,4.466l5.841,15.09Z" transform="translate(-0.151 -0.122)" fill="#1a6cff"/>
    <path id="Path_6440" data-name="Path 6440" d="M5.054,31.108H7.9L6.309,27H5.054a2.054,2.054,0,1,0,0,4.108Z" transform="translate(0 -11.675)" fill="#1a6cff"/>
    <path id="Path_6441" data-name="Path 6441" d="M17,21h3.081v7.19H17Z" transform="translate(-6.81 -8.756)" fill="#1a6cff"/>
  </g>
</svg>
