<svg xmlns="http://www.w3.org/2000/svg" width="30.326" height="30.266" viewBox="0 0 30.326 30.266">
  <g id="internet" transform="translate(0 -0.316)">
    <path id="Path_6855" data-name="Path 6855" d="M231.816,350.9c2.319-.329,4.352-2.75,5.631-6.324a27.528,27.528,0,0,0-5.631-.663Zm0,0" transform="translate(-216.111 -320.319)" fill="#1a6cff"/>
    <path id="Path_6856" data-name="Path 6856" d="M279.971,363.1c.137-.04.274-.08.409-.124.114-.037.227-.076.34-.116.133-.046.266-.093.4-.144.113-.043.224-.088.336-.134l.386-.162c.111-.049.222-.1.333-.152s.25-.119.373-.182q.163-.083.325-.17.182-.1.362-.2c.108-.061.213-.123.319-.187l.351-.217c.1-.066.208-.133.31-.2s.227-.157.339-.237.2-.144.3-.217.22-.17.328-.257.193-.154.288-.233.212-.183.317-.276.185-.163.275-.247.2-.2.305-.3.176-.171.261-.26l.047-.051a18.216,18.216,0,0,0-3.714-1.429,13.449,13.449,0,0,1-3.464,5.625l.132-.032C279.744,363.173,279.858,363.138,279.971,363.1Zm0,0" transform="translate(-260.561 -333.091)" fill="#1a6cff"/>
    <path id="Path_6857" data-name="Path 6857" d="M343.151,231.684h-6.5a28.108,28.108,0,0,1-1.094,7.5,18.85,18.85,0,0,1,4.113,1.637A15.142,15.142,0,0,0,343.151,231.684Zm0,0" transform="translate(-312.825 -215.692)" fill="#1a6cff"/>
    <path id="Path_6858" data-name="Path 6858" d="M231.816,116.173h7.039a27.113,27.113,0,0,0-1.067-7.232,28.548,28.548,0,0,1-5.972.712Zm0,0" transform="translate(-216.111 -101.266)" fill="#1a6cff"/>
    <path id="Path_6859" data-name="Path 6859" d="M231.816.316V7.3a27.546,27.546,0,0,0,5.631-.663c-1.279-3.575-3.312-5.995-5.631-6.324Zm0,0" transform="translate(-216.111)" fill="#1a6cff"/>
    <path id="Path_6860" data-name="Path 6860" d="M231.816,238.2a28.567,28.567,0,0,1,5.972.712,27.115,27.115,0,0,0,1.067-7.232h-7.039Zm0,0" transform="translate(-216.111 -215.692)" fill="#1a6cff"/>
    <path id="Path_6861" data-name="Path 6861" d="M339.672,80.844a18.85,18.85,0,0,1-4.113,1.637,28.108,28.108,0,0,1,1.094,7.5h6.5A15.147,15.147,0,0,0,339.672,80.844Zm0,0" transform="translate(-312.825 -75.072)" fill="#1a6cff"/>
    <path id="Path_6862" data-name="Path 6862" d="M286.639,10.991l-.047-.05c-.086-.088-.175-.174-.262-.26s-.2-.2-.3-.3-.183-.163-.275-.246-.21-.187-.318-.277-.19-.155-.285-.231-.22-.175-.331-.259-.2-.145-.3-.217-.227-.163-.342-.24-.2-.135-.307-.2-.234-.149-.354-.221-.21-.125-.316-.185q-.182-.1-.365-.2c-.109-.054-.217-.113-.325-.168-.125-.063-.25-.124-.379-.183q-.163-.077-.33-.151c-.128-.057-.258-.108-.387-.162-.112-.046-.223-.091-.336-.133-.132-.05-.265-.1-.4-.143-.113-.04-.225-.079-.34-.116-.135-.044-.271-.084-.41-.124-.113-.033-.226-.067-.34-.1-.044-.012-.088-.021-.132-.033a13.45,13.45,0,0,1,3.464,5.625A18.19,18.19,0,0,0,286.639,10.991Zm0,0" transform="translate(-260.524 -6.041)" fill="#1a6cff"/>
    <path id="Path_6863" data-name="Path 6863" d="M0,89.979H6.5a28.118,28.118,0,0,1,1.094-7.5A18.827,18.827,0,0,1,3.48,80.844,15.143,15.143,0,0,0,0,89.979Zm0,0" transform="translate(0 -75.072)" fill="#1a6cff"/>
    <path id="Path_6864" data-name="Path 6864" d="M138.327,350.9v-6.987a27.547,27.547,0,0,0-5.631.663C133.974,348.152,136.008,350.572,138.327,350.9Zm0,0" transform="translate(-123.705 -320.319)" fill="#1a6cff"/>
    <path id="Path_6865" data-name="Path 6865" d="M118.961,231.684h-7.039a27.1,27.1,0,0,0,1.067,7.232,28.53,28.53,0,0,1,5.972-.712Zm0,0" transform="translate(-104.339 -215.692)" fill="#1a6cff"/>
    <path id="Path_6866" data-name="Path 6866" d="M138.327.316c-2.319.329-4.352,2.75-5.631,6.324a27.509,27.509,0,0,0,5.631.663Zm0,0" transform="translate(-123.705)" fill="#1a6cff"/>
    <path id="Path_6867" data-name="Path 6867" d="M118.961,109.654a28.548,28.548,0,0,1-5.972-.712,27.1,27.1,0,0,0-1.067,7.232h7.039Zm0,0" transform="translate(-104.339 -101.266)" fill="#1a6cff"/>
    <path id="Path_6868" data-name="Path 6868" d="M69.367,6.789l-.132.032c-.115.031-.228.065-.342.1-.136.04-.271.08-.408.123-.115.037-.228.077-.342.116-.133.047-.265.093-.4.143-.113.043-.225.088-.337.134l-.385.162c-.112.049-.222.1-.333.152s-.25.119-.373.182q-.163.083-.325.17-.182.1-.361.2-.163.091-.32.186c-.118.071-.234.144-.35.217s-.208.134-.31.2-.227.157-.339.237-.2.144-.3.217-.217.17-.328.257c-.1.077-.193.153-.288.233s-.211.182-.316.275-.186.163-.277.248-.2.2-.3.295-.176.171-.262.26c-.016.016-.031.034-.047.051a18.2,18.2,0,0,0,3.714,1.429A13.445,13.445,0,0,1,69.367,6.789Zm0,0" transform="translate(-57.978 -6.034)" fill="#1a6cff"/>
    <path id="Path_6869" data-name="Path 6869" d="M62.535,359.3c.1.1.2.2.3.3s.183.163.275.246.21.187.318.277.189.155.285.231.217.175.332.26c.1.073.2.144.3.217s.228.163.343.241.2.135.307.2.234.149.354.22.21.125.316.185q.182.1.365.2c.108.054.217.113.325.168.125.063.25.124.379.183q.163.077.33.151c.128.057.258.108.387.162.112.046.223.091.336.133.132.051.265.1.4.144.113.039.225.079.34.116.135.044.271.084.41.124.113.033.226.067.34.1.044.012.088.021.132.033a13.453,13.453,0,0,1-3.464-5.625,18.2,18.2,0,0,0-3.714,1.43l.047.05C62.359,359.131,62.446,359.216,62.535,359.3Zm0,0" transform="translate(-58.014 -333.043)" fill="#1a6cff"/>
    <path id="Path_6870" data-name="Path 6870" d="M3.48,240.819a18.853,18.853,0,0,1,4.113-1.637,28.118,28.118,0,0,1-1.094-7.5H0A15.145,15.145,0,0,0,3.48,240.819Zm0,0" transform="translate(0 -215.692)" fill="#1a6cff"/>
  </g>
</svg>
