<svg xmlns="http://www.w3.org/2000/svg" width="29.44" height="29.828" viewBox="0 0 29.44 29.828">
  <g id="support_1_" data-name="support (1)" transform="translate(-3.333)">
    <g id="Group_7755" data-name="Group 7755" transform="translate(11.65 2.56)">
      <g id="Group_7754" data-name="Group 7754" transform="translate(0)">
        <path id="Path_6451" data-name="Path 6451" d="M152.488,43.944a6.411,6.411,0,0,0-6.4,6.4v3.111a6.4,6.4,0,0,0,12.06,3,6.9,6.9,0,0,1-2.516.475h-1.861a.96.96,0,1,1,0-1.92h1.861a5.009,5.009,0,0,0,3.253-1.2q.01-.174.01-.349V50.348A6.411,6.411,0,0,0,152.488,43.944Z" transform="translate(-146.084 -43.944)" fill="#1a6cff"/>
      </g>
    </g>
    <g id="Group_7757" data-name="Group 7757" transform="translate(6.494)">
      <g id="Group_7756" data-name="Group 7756">
        <path id="Path_6452" data-name="Path 6452" d="M78.165,7.954h-.113a8.964,8.964,0,0,0-17.813,0h-.113a2.54,2.54,0,0,0,0,5.081h1.015a.96.96,0,0,0,.96-.96V8.964a7.044,7.044,0,0,1,14.087,0v2.79a4.983,4.983,0,0,1-.65.67,6.349,6.349,0,0,1-.737,2.649,6.929,6.929,0,0,0,2.82-2.038h.542a2.54,2.54,0,1,0,0-5.081Z" transform="translate(-57.587)" fill="#1a6cff"/>
      </g>
    </g>
    <g id="Group_7759" data-name="Group 7759" transform="translate(19.013 16.671)">
      <g id="Group_7758" data-name="Group 7758">
        <path id="Path_6453" data-name="Path 6453" d="M286.188,298.056l-2.878-8.925a.96.96,0,0,0-.45-.546l-4.409-2.432a8.333,8.333,0,0,1-5.976,3.672v9.486h12.8A.961.961,0,0,0,286.188,298.056Z" transform="translate(-272.474 -286.153)" fill="#1a6cff"/>
      </g>
    </g>
    <g id="Group_7761" data-name="Group 7761" transform="translate(3.333 16.671)">
      <g id="Group_7760" data-name="Group 7760" transform="translate(0)">
        <path id="Path_6454" data-name="Path 6454" d="M11.117,286.153l-4.409,2.432a.961.961,0,0,0-.45.546L3.38,298.056a.96.96,0,0,0,.914,1.255h12.8v-9.486A8.332,8.332,0,0,1,11.117,286.153Z" transform="translate(-3.333 -286.153)" fill="#1a6cff"/>
      </g>
    </g>
  </g>
</svg>
